<?xml version="1.0" encoding="UTF-8" standalone="no"?>
<!DOCTYPE svg PUBLIC "-//W3C//DTD SVG 1.1//EN"
 "http://www.w3.org/Graphics/SVG/1.1/DTD/svg11.dtd">
<!-- Generated by graphviz version 7.0.3 (0)
 -->
<!-- Title: LogicProof::isValid Pages: 1 -->
<svg width="552pt" height="288pt"
 viewBox="0.00 0.00 552.00 288.00" xmlns="http://www.w3.org/2000/svg" xmlns:xlink="http://www.w3.org/1999/xlink">
<g id="graph0" class="graph" transform="scale(1 1) rotate(0) translate(4 284)">
<title>LogicProof::isValid</title>
<!-- Node1 -->
<g id="node1" class="node">
<title>Node1</title>
<g id="a_node1"><a xlink:title="Validates a logic proof.">
<polygon fill="#999999" stroke="#666666" points="98,-150 0,-150 0,-131 98,-131 98,-150"/>
<text text-anchor="middle" x="49" y="-138" font-family="Helvetica,sans-Serif" font-size="10.00">LogicProof::isValid</text>
</a>
</g>
</g>
<!-- Node2 -->
<g id="node2" class="node">
<title>Node2</title>
<g id="a_node2"><a xlink:href="classLogicProof.html#a011db3a55dccb1b9e0ef6ee18aa6811e" target="_top" xlink:title="Given a line number validates the proof line.">
<polygon fill="white" stroke="#666666" points="255,-150 134,-150 134,-131 255,-131 255,-150"/>
<text text-anchor="middle" x="194.5" y="-138" font-family="Helvetica,sans-Serif" font-size="10.00">LogicProof::validateLine</text>
</a>
</g>
</g>
<!-- Node1&#45;&gt;Node2 -->
<g id="edge1" class="edge">
<title>Node1&#45;&gt;Node2</title>
<path fill="none" stroke="#63b8ff" d="M98.18,-140.5C105.93,-140.5 114.09,-140.5 122.24,-140.5"/>
<polygon fill="#63b8ff" stroke="#63b8ff" points="122.2,-144 132.2,-140.5 122.2,-137 122.2,-144"/>
</g>
<!-- Node3 -->
<g id="node3" class="node">
<title>Node3</title>
<g id="a_node3"><a xlink:href="classProofLine.html#a6f15eb7449501df4529d0800f84045e5" target="_top" xlink:title="Gets the formula present in the proof line.">
<polygon fill="white" stroke="#666666" points="420.5,-280 307.5,-280 307.5,-261 420.5,-261 420.5,-280"/>
<text text-anchor="middle" x="364" y="-268" font-family="Helvetica,sans-Serif" font-size="10.00">ProofLine::getFormula</text>
</a>
</g>
</g>
<!-- Node2&#45;&gt;Node3 -->
<g id="edge2" class="edge">
<title>Node2&#45;&gt;Node3</title>
<path fill="none" stroke="#63b8ff" d="M200.97,-150.37C213.71,-172.36 247.56,-225.58 291,-252.5 293.14,-253.82 295.36,-255.05 297.66,-256.19"/>
<polygon fill="#63b8ff" stroke="#63b8ff" points="296.09,-259.32 306.66,-260.02 298.83,-252.88 296.09,-259.32"/>
</g>
<!-- Node4 -->
<g id="node4" class="node">
<title>Node4</title>
<g id="a_node4"><a xlink:href="classLogicProof.html#a8272ead70dfe367abcfef118c8611b93" target="_top" xlink:title="Given a line number returns the formula.">
<polygon fill="white" stroke="#666666" points="423,-243 305,-243 305,-224 423,-224 423,-243"/>
<text text-anchor="middle" x="364" y="-231" font-family="Helvetica,sans-Serif" font-size="10.00">LogicProof::getFormula</text>
</a>
</g>
</g>
<!-- Node2&#45;&gt;Node4 -->
<g id="edge3" class="edge">
<title>Node2&#45;&gt;Node4</title>
<path fill="none" stroke="#63b8ff" d="M205.12,-150.39C221.33,-166.48 255.78,-198.26 291,-215.5 294.24,-217.09 297.63,-218.54 301.11,-219.87"/>
<polygon fill="#63b8ff" stroke="#63b8ff" points="299.67,-223.08 310.26,-223.03 301.95,-216.46 299.67,-223.08"/>
</g>
<!-- Node5 -->
<g id="node5" class="node">
<title>Node5</title>
<g id="a_node5"><a xlink:href="classProofLine.html#a745a86679416a34eeff4e5480483e834" target="_top" xlink:title="Gets the line reference (1) referenced while applying the rule.">
<polygon fill="white" stroke="#666666" points="437,-206 291,-206 291,-187 437,-187 437,-206"/>
<text text-anchor="middle" x="364" y="-194" font-family="Helvetica,sans-Serif" font-size="10.00">ProofLine::getLineReference1</text>
</a>
</g>
</g>
<!-- Node2&#45;&gt;Node5 -->
<g id="edge4" class="edge">
<title>Node2&#45;&gt;Node5</title>
<path fill="none" stroke="#63b8ff" d="M217.96,-150.43C237.12,-158.65 265.52,-170.29 291,-178.5 296.67,-180.33 302.64,-182.08 308.62,-183.73"/>
<polygon fill="#63b8ff" stroke="#63b8ff" points="307.3,-187 317.87,-186.19 309.1,-180.24 307.3,-187"/>
</g>
<!-- Node6 -->
<g id="node6" class="node">
<title>Node6</title>
<g id="a_node6"><a xlink:href="classProofLine.html#a184f117f56837f4d22bd5238b42f0ee9" target="_top" xlink:title="Gets the line reference (2) referenced while applying the rule.">
<polygon fill="white" stroke="#666666" points="437,-169 291,-169 291,-150 437,-150 437,-169"/>
<text text-anchor="middle" x="364" y="-157" font-family="Helvetica,sans-Serif" font-size="10.00">ProofLine::getLineReference2</text>
</a>
</g>
</g>
<!-- Node2&#45;&gt;Node6 -->
<g id="edge5" class="edge">
<title>Node2&#45;&gt;Node6</title>
<path fill="none" stroke="#63b8ff" d="M255.5,-147.31C263.22,-148.18 271.23,-149.09 279.25,-150"/>
<polygon fill="#63b8ff" stroke="#63b8ff" points="278.71,-153.46 289.04,-151.11 279.5,-146.51 278.71,-153.46"/>
</g>
<!-- Node7 -->
<g id="node7" class="node">
<title>Node7</title>
<g id="a_node7"><a xlink:href="classLogicProof.html#a8e4fb26f259e8262dab8dec178cb7176" target="_top" xlink:title="Given a line number, gets the proof line object reference.">
<polygon fill="white" stroke="#666666" points="426,-132 302,-132 302,-113 426,-113 426,-132"/>
<text text-anchor="middle" x="364" y="-120" font-family="Helvetica,sans-Serif" font-size="10.00">LogicProof::getProofLine</text>
</a>
</g>
</g>
<!-- Node2&#45;&gt;Node7 -->
<g id="edge6" class="edge">
<title>Node2&#45;&gt;Node7</title>
<path fill="none" stroke="#63b8ff" d="M255.5,-134.05C266.88,-132.83 278.9,-131.54 290.62,-130.28"/>
<polygon fill="#63b8ff" stroke="#63b8ff" points="290.66,-133.79 300.22,-129.25 289.91,-126.83 290.66,-133.79"/>
</g>
<!-- Node8 -->
<g id="node8" class="node">
<title>Node8</title>
<g id="a_node8"><a xlink:href="classProofLine.html#affb8df81fdbdedb6a5a52f96ca7865e4" target="_top" xlink:title="Gets the rule present in the proof line.">
<polygon fill="white" stroke="#666666" points="413,-95 315,-95 315,-76 413,-76 413,-95"/>
<text text-anchor="middle" x="364" y="-83" font-family="Helvetica,sans-Serif" font-size="10.00">ProofLine::getRule</text>
</a>
</g>
</g>
<!-- Node2&#45;&gt;Node8 -->
<g id="edge7" class="edge">
<title>Node2&#45;&gt;Node8</title>
<path fill="none" stroke="#63b8ff" d="M219.59,-130.63C238.76,-122.98 266.36,-112.37 291,-104.5 297.63,-102.38 304.65,-100.32 311.61,-98.37"/>
<polygon fill="#63b8ff" stroke="#63b8ff" points="312.23,-101.83 320.96,-95.83 310.4,-95.07 312.23,-101.83"/>
</g>
<!-- Node9 -->
<g id="node9" class="node">
<title>Node9</title>
<g id="a_node9"><a xlink:href="utils_8cpp.html#a28cdd43f9fe341d3e93053ba2132fdb7" target="_top" xlink:title="Gets an array of subformulae.">
<polygon fill="white" stroke="#666666" points="406.5,-19 321.5,-19 321.5,0 406.5,0 406.5,-19"/>
<text text-anchor="middle" x="364" y="-7" font-family="Helvetica,sans-Serif" font-size="10.00">getSubformulas</text>
</a>
</g>
</g>
<!-- Node2&#45;&gt;Node9 -->
<g id="edge8" class="edge">
<title>Node2&#45;&gt;Node9</title>
<path fill="none" stroke="#63b8ff" d="M201.64,-130.68C215.21,-109.79 249.81,-60.6 291,-33.5 297,-29.56 303.7,-26.2 310.54,-23.37"/>
<polygon fill="#63b8ff" stroke="#63b8ff" points="311.76,-26.65 319.9,-19.86 309.3,-20.09 311.76,-26.65"/>
</g>
<!-- Node10 -->
<g id="node10" class="node">
<title>Node10</title>
<g id="a_node10"><a xlink:href="utils_8cpp.html#a32422df5e46274fb24a354222b40cea1" target="_top" xlink:title="Takes the infix formula given and converts into prefix formula.">
<polygon fill="white" stroke="#666666" points="544,-56 473,-56 473,-37 544,-37 544,-56"/>
<text text-anchor="middle" x="508.5" y="-44" font-family="Helvetica,sans-Serif" font-size="10.00">infixToPrefix</text>
</a>
</g>
</g>
<!-- Node2&#45;&gt;Node10 -->
<g id="edge11" class="edge">
<title>Node2&#45;&gt;Node10</title>
<path fill="none" stroke="#63b8ff" d="M204.66,-130.56C220.47,-114.15 254.68,-81.78 291,-67.5 346.65,-45.62 416.29,-42.77 461.32,-43.78"/>
<polygon fill="#63b8ff" stroke="#63b8ff" points="461.16,-47.28 471.26,-44.09 461.37,-40.28 461.16,-47.28"/>
</g>
<!-- Node9&#45;&gt;Node10 -->
<g id="edge9" class="edge">
<title>Node9&#45;&gt;Node10</title>
<path fill="none" stroke="#63b8ff" d="M403.19,-19.42C421.16,-24.08 442.74,-29.68 461.59,-34.58"/>
<polygon fill="#63b8ff" stroke="#63b8ff" points="460.6,-37.94 471.16,-37.06 462.36,-31.16 460.6,-37.94"/>
</g>
<!-- Node11 -->
<g id="node11" class="node">
<title>Node11</title>
<g id="a_node11"><a xlink:href="utils_8cpp.html#a671191aa164ea6787d160a38fb29ff82" target="_top" xlink:title="Takes the prefix formula given and converts into infix formula.">
<polygon fill="white" stroke="#666666" points="543.5,-19 473.5,-19 473.5,0 543.5,0 543.5,-19"/>
<text text-anchor="middle" x="508.5" y="-7" font-family="Helvetica,sans-Serif" font-size="10.00">prefixToInfix</text>
</a>
</g>
</g>
<!-- Node9&#45;&gt;Node11 -->
<g id="edge10" class="edge">
<title>Node9&#45;&gt;Node11</title>
<path fill="none" stroke="#63b8ff" d="M406.98,-9.5C424.14,-9.5 444.04,-9.5 461.58,-9.5"/>
<polygon fill="#63b8ff" stroke="#63b8ff" points="461.49,-13 471.49,-9.5 461.49,-6 461.49,-13"/>
</g>
</g>
</svg>
