<?xml version="1.0" encoding="UTF-8" standalone="no"?>
<!DOCTYPE svg PUBLIC "-//W3C//DTD SVG 1.1//EN"
 "http://www.w3.org/Graphics/SVG/1.1/DTD/svg11.dtd">
<!-- Generated by graphviz version 7.0.3 (0)
 -->
<!-- Title: LogicProof Pages: 1 -->
<svg width="114pt" height="237pt"
 viewBox="0.00 0.00 113.50 237.00" xmlns="http://www.w3.org/2000/svg" xmlns:xlink="http://www.w3.org/1999/xlink">
<g id="graph0" class="graph" transform="scale(1 1) rotate(0) translate(4 233)">
<title>LogicProof</title>
<!-- Node1 -->
<g id="node1" class="node">
<title>Node1</title>
<g id="a_node1"><a xlink:title="Class for logic proof.">
<polygon fill="#999999" stroke="#666666" points="79,-19 16,-19 16,0 79,0 79,-19"/>
<text text-anchor="middle" x="47.5" y="-7" font-family="Helvetica,sans-Serif" font-size="10.00">LogicProof</text>
</a>
</g>
</g>
<!-- Node2 -->
<g id="node2" class="node">
<title>Node2</title>
<g id="a_node2"><a xlink:href="classProofLine.html" target="_top" xlink:title="Class for proof line.">
<polygon fill="white" stroke="#666666" points="76.5,-85 18.5,-85 18.5,-66 76.5,-66 76.5,-85"/>
<text text-anchor="middle" x="47.5" y="-73" font-family="Helvetica,sans-Serif" font-size="10.00">ProofLine</text>
</a>
</g>
</g>
<!-- Node2&#45;&gt;Node1 -->
<g id="edge1" class="edge">
<title>Node2&#45;&gt;Node1</title>
<path fill="none" stroke="#9a32cd" stroke-dasharray="5,2" d="M47.5,-54.18C47.5,-42.44 47.5,-28.27 47.5,-19.32"/>
<polygon fill="#9a32cd" stroke="#9a32cd" points="44,-54.09 47.5,-64.09 51,-54.09 44,-54.09"/>
<text text-anchor="middle" x="76.5" y="-40" font-family="Helvetica,sans-Serif" font-size="10.00"> linesOfProof</text>
</g>
<!-- Node3 -->
<g id="node3" class="node">
<title>Node3</title>
<g id="a_node3"><a xlink:title=" ">
<polygon fill="white" stroke="#666666" points="77.5,-162 17.5,-162 17.5,-143 77.5,-143 77.5,-162"/>
<text text-anchor="middle" x="47.5" y="-150" font-family="Helvetica,sans-Serif" font-size="10.00">std::string</text>
</a>
</g>
</g>
<!-- Node3&#45;&gt;Node2 -->
<g id="edge2" class="edge">
<title>Node3&#45;&gt;Node2</title>
<path fill="none" stroke="#9a32cd" stroke-dasharray="5,2" d="M47.5,-131.42C47.5,-116.43 47.5,-96.66 47.5,-85.39"/>
<polygon fill="#9a32cd" stroke="#9a32cd" points="44,-131.09 47.5,-141.09 51,-131.09 44,-131.09"/>
<text text-anchor="middle" x="65.5" y="-117" font-family="Helvetica,sans-Serif" font-size="10.00"> formula</text>
<text text-anchor="middle" x="65.5" y="-106" font-family="Helvetica,sans-Serif" font-size="10.00">rule</text>
</g>
<!-- Node4 -->
<g id="node4" class="node">
<title>Node4</title>
<g id="a_node4"><a xlink:title=" ">
<polygon fill="white" stroke="#666666" points="95,-229 0,-229 0,-199 95,-199 95,-229"/>
<text text-anchor="start" x="8" y="-217" font-family="Helvetica,sans-Serif" font-size="10.00">std::basic_string&lt;</text>
<text text-anchor="middle" x="47.5" y="-206" font-family="Helvetica,sans-Serif" font-size="10.00"> Char &gt;</text>
</a>
</g>
</g>
<!-- Node4&#45;&gt;Node3 -->
<g id="edge3" class="edge">
<title>Node4&#45;&gt;Node3</title>
<path fill="none" stroke="#63b8ff" d="M47.5,-187.13C47.5,-178.29 47.5,-168.99 47.5,-162.42"/>
<polygon fill="#63b8ff" stroke="#63b8ff" points="44,-187.08 47.5,-197.08 51,-187.08 44,-187.08"/>
</g>
</g>
</svg>
