<?xml version="1.0" encoding="UTF-8" standalone="no"?>
<!DOCTYPE svg PUBLIC "-//W3C//DTD SVG 1.1//EN"
 "http://www.w3.org/Graphics/SVG/1.1/DTD/svg11.dtd">
<!-- Generated by graphviz version 7.0.3 (0)
 -->
<!-- Title: LogicProof::validateLine Pages: 1 -->
<svg width="418pt" height="288pt"
 viewBox="0.00 0.00 418.00 288.00" xmlns="http://www.w3.org/2000/svg" xmlns:xlink="http://www.w3.org/1999/xlink">
<g id="graph0" class="graph" transform="scale(1 1) rotate(0) translate(4 284)">
<title>LogicProof::validateLine</title>
<!-- Node1 -->
<g id="node1" class="node">
<title>Node1</title>
<g id="a_node1"><a xlink:title="Given a line number validates the proof line.">
<polygon fill="#999999" stroke="#666666" points="121,-150 0,-150 0,-131 121,-131 121,-150"/>
<text text-anchor="middle" x="60.5" y="-138" font-family="Helvetica,sans-Serif" font-size="10.00">LogicProof::validateLine</text>
</a>
</g>
</g>
<!-- Node2 -->
<g id="node2" class="node">
<title>Node2</title>
<g id="a_node2"><a xlink:href="classProofLine.html#a6f15eb7449501df4529d0800f84045e5" target="_top" xlink:title="Gets the formula present in the proof line.">
<polygon fill="white" stroke="#666666" points="286.5,-280 173.5,-280 173.5,-261 286.5,-261 286.5,-280"/>
<text text-anchor="middle" x="230" y="-268" font-family="Helvetica,sans-Serif" font-size="10.00">ProofLine::getFormula</text>
</a>
</g>
</g>
<!-- Node1&#45;&gt;Node2 -->
<g id="edge1" class="edge">
<title>Node1&#45;&gt;Node2</title>
<path fill="none" stroke="#63b8ff" d="M66.97,-150.37C79.71,-172.36 113.56,-225.58 157,-252.5 159.14,-253.82 161.36,-255.05 163.66,-256.19"/>
<polygon fill="#63b8ff" stroke="#63b8ff" points="162.09,-259.32 172.66,-260.02 164.83,-252.88 162.09,-259.32"/>
</g>
<!-- Node3 -->
<g id="node3" class="node">
<title>Node3</title>
<g id="a_node3"><a xlink:href="classLogicProof.html#a8272ead70dfe367abcfef118c8611b93" target="_top" xlink:title="Given a line number returns the formula.">
<polygon fill="white" stroke="#666666" points="289,-243 171,-243 171,-224 289,-224 289,-243"/>
<text text-anchor="middle" x="230" y="-231" font-family="Helvetica,sans-Serif" font-size="10.00">LogicProof::getFormula</text>
</a>
</g>
</g>
<!-- Node1&#45;&gt;Node3 -->
<g id="edge2" class="edge">
<title>Node1&#45;&gt;Node3</title>
<path fill="none" stroke="#63b8ff" d="M71.12,-150.39C87.33,-166.48 121.78,-198.26 157,-215.5 160.24,-217.09 163.63,-218.54 167.11,-219.87"/>
<polygon fill="#63b8ff" stroke="#63b8ff" points="165.67,-223.08 176.26,-223.03 167.95,-216.46 165.67,-223.08"/>
</g>
<!-- Node4 -->
<g id="node4" class="node">
<title>Node4</title>
<g id="a_node4"><a xlink:href="classProofLine.html#a745a86679416a34eeff4e5480483e834" target="_top" xlink:title="Gets the line reference (1) referenced while applying the rule.">
<polygon fill="white" stroke="#666666" points="303,-206 157,-206 157,-187 303,-187 303,-206"/>
<text text-anchor="middle" x="230" y="-194" font-family="Helvetica,sans-Serif" font-size="10.00">ProofLine::getLineReference1</text>
</a>
</g>
</g>
<!-- Node1&#45;&gt;Node4 -->
<g id="edge3" class="edge">
<title>Node1&#45;&gt;Node4</title>
<path fill="none" stroke="#63b8ff" d="M83.96,-150.43C103.12,-158.65 131.52,-170.29 157,-178.5 162.67,-180.33 168.64,-182.08 174.62,-183.73"/>
<polygon fill="#63b8ff" stroke="#63b8ff" points="173.3,-187 183.87,-186.19 175.1,-180.24 173.3,-187"/>
</g>
<!-- Node5 -->
<g id="node5" class="node">
<title>Node5</title>
<g id="a_node5"><a xlink:href="classProofLine.html#a184f117f56837f4d22bd5238b42f0ee9" target="_top" xlink:title="Gets the line reference (2) referenced while applying the rule.">
<polygon fill="white" stroke="#666666" points="303,-169 157,-169 157,-150 303,-150 303,-169"/>
<text text-anchor="middle" x="230" y="-157" font-family="Helvetica,sans-Serif" font-size="10.00">ProofLine::getLineReference2</text>
</a>
</g>
</g>
<!-- Node1&#45;&gt;Node5 -->
<g id="edge4" class="edge">
<title>Node1&#45;&gt;Node5</title>
<path fill="none" stroke="#63b8ff" d="M121.5,-147.31C129.22,-148.18 137.23,-149.09 145.25,-150"/>
<polygon fill="#63b8ff" stroke="#63b8ff" points="144.71,-153.46 155.04,-151.11 145.5,-146.51 144.71,-153.46"/>
</g>
<!-- Node6 -->
<g id="node6" class="node">
<title>Node6</title>
<g id="a_node6"><a xlink:href="classLogicProof.html#a8e4fb26f259e8262dab8dec178cb7176" target="_top" xlink:title="Given a line number, gets the proof line object reference.">
<polygon fill="white" stroke="#666666" points="292,-132 168,-132 168,-113 292,-113 292,-132"/>
<text text-anchor="middle" x="230" y="-120" font-family="Helvetica,sans-Serif" font-size="10.00">LogicProof::getProofLine</text>
</a>
</g>
</g>
<!-- Node1&#45;&gt;Node6 -->
<g id="edge5" class="edge">
<title>Node1&#45;&gt;Node6</title>
<path fill="none" stroke="#63b8ff" d="M121.5,-134.05C132.88,-132.83 144.9,-131.54 156.62,-130.28"/>
<polygon fill="#63b8ff" stroke="#63b8ff" points="156.66,-133.79 166.22,-129.25 155.91,-126.83 156.66,-133.79"/>
</g>
<!-- Node7 -->
<g id="node7" class="node">
<title>Node7</title>
<g id="a_node7"><a xlink:href="classProofLine.html#affb8df81fdbdedb6a5a52f96ca7865e4" target="_top" xlink:title="Gets the rule present in the proof line.">
<polygon fill="white" stroke="#666666" points="279,-95 181,-95 181,-76 279,-76 279,-95"/>
<text text-anchor="middle" x="230" y="-83" font-family="Helvetica,sans-Serif" font-size="10.00">ProofLine::getRule</text>
</a>
</g>
</g>
<!-- Node1&#45;&gt;Node7 -->
<g id="edge6" class="edge">
<title>Node1&#45;&gt;Node7</title>
<path fill="none" stroke="#63b8ff" d="M85.59,-130.63C104.76,-122.98 132.36,-112.37 157,-104.5 163.63,-102.38 170.65,-100.32 177.61,-98.37"/>
<polygon fill="#63b8ff" stroke="#63b8ff" points="178.23,-101.83 186.96,-95.83 176.4,-95.07 178.23,-101.83"/>
</g>
<!-- Node8 -->
<g id="node8" class="node">
<title>Node8</title>
<g id="a_node8"><a xlink:href="utils_8cpp.html#a28cdd43f9fe341d3e93053ba2132fdb7" target="_top" xlink:title="Gets an array of subformulae.">
<polygon fill="white" stroke="#666666" points="272.5,-19 187.5,-19 187.5,0 272.5,0 272.5,-19"/>
<text text-anchor="middle" x="230" y="-7" font-family="Helvetica,sans-Serif" font-size="10.00">getSubformulas</text>
</a>
</g>
</g>
<!-- Node1&#45;&gt;Node8 -->
<g id="edge7" class="edge">
<title>Node1&#45;&gt;Node8</title>
<path fill="none" stroke="#63b8ff" d="M67.64,-130.68C81.21,-109.79 115.81,-60.6 157,-33.5 163,-29.56 169.7,-26.2 176.54,-23.37"/>
<polygon fill="#63b8ff" stroke="#63b8ff" points="177.76,-26.65 185.9,-19.86 175.3,-20.09 177.76,-26.65"/>
</g>
<!-- Node9 -->
<g id="node9" class="node">
<title>Node9</title>
<g id="a_node9"><a xlink:href="utils_8cpp.html#a32422df5e46274fb24a354222b40cea1" target="_top" xlink:title="Takes the infix formula given and converts into prefix formula.">
<polygon fill="white" stroke="#666666" points="410,-56 339,-56 339,-37 410,-37 410,-56"/>
<text text-anchor="middle" x="374.5" y="-44" font-family="Helvetica,sans-Serif" font-size="10.00">infixToPrefix</text>
</a>
</g>
</g>
<!-- Node1&#45;&gt;Node9 -->
<g id="edge10" class="edge">
<title>Node1&#45;&gt;Node9</title>
<path fill="none" stroke="#63b8ff" d="M70.66,-130.56C86.47,-114.15 120.68,-81.78 157,-67.5 212.65,-45.62 282.29,-42.77 327.32,-43.78"/>
<polygon fill="#63b8ff" stroke="#63b8ff" points="327.16,-47.28 337.26,-44.09 327.37,-40.28 327.16,-47.28"/>
</g>
<!-- Node8&#45;&gt;Node9 -->
<g id="edge8" class="edge">
<title>Node8&#45;&gt;Node9</title>
<path fill="none" stroke="#63b8ff" d="M269.19,-19.42C287.16,-24.08 308.74,-29.68 327.59,-34.58"/>
<polygon fill="#63b8ff" stroke="#63b8ff" points="326.6,-37.94 337.16,-37.06 328.36,-31.16 326.6,-37.94"/>
</g>
<!-- Node10 -->
<g id="node10" class="node">
<title>Node10</title>
<g id="a_node10"><a xlink:href="utils_8cpp.html#a671191aa164ea6787d160a38fb29ff82" target="_top" xlink:title="Takes the prefix formula given and converts into infix formula.">
<polygon fill="white" stroke="#666666" points="409.5,-19 339.5,-19 339.5,0 409.5,0 409.5,-19"/>
<text text-anchor="middle" x="374.5" y="-7" font-family="Helvetica,sans-Serif" font-size="10.00">prefixToInfix</text>
</a>
</g>
</g>
<!-- Node8&#45;&gt;Node10 -->
<g id="edge9" class="edge">
<title>Node8&#45;&gt;Node10</title>
<path fill="none" stroke="#63b8ff" d="M272.98,-9.5C290.14,-9.5 310.04,-9.5 327.58,-9.5"/>
<polygon fill="#63b8ff" stroke="#63b8ff" points="327.49,-13 337.49,-9.5 327.49,-6 327.49,-13"/>
</g>
</g>
</svg>
