<?xml version="1.0" encoding="UTF-8" standalone="no"?>
<!DOCTYPE svg PUBLIC "-//W3C//DTD SVG 1.1//EN"
 "http://www.w3.org/Graphics/SVG/1.1/DTD/svg11.dtd">
<!-- Generated by graphviz version 7.0.3 (0)
 -->
<!-- Title: Stack Pages: 1 -->
<svg width="145pt" height="171pt"
 viewBox="0.00 0.00 144.50 171.00" xmlns="http://www.w3.org/2000/svg" xmlns:xlink="http://www.w3.org/1999/xlink">
<g id="graph0" class="graph" transform="scale(1 1) rotate(0) translate(4 167)">
<title>Stack</title>
<!-- Node1 -->
<g id="node1" class="node">
<title>Node1</title>
<g id="a_node1"><a xlink:title="Custom stack defined for multiple purposes.">
<polygon fill="#999999" stroke="#666666" points="68.5,-19 26.5,-19 26.5,0 68.5,0 68.5,-19"/>
<text text-anchor="middle" x="47.5" y="-7" font-family="Helvetica,sans-Serif" font-size="10.00">Stack</text>
</a>
</g>
</g>
<!-- Node2 -->
<g id="node2" class="node">
<title>Node2</title>
<g id="a_node2"><a xlink:title=" ">
<polygon fill="white" stroke="#666666" points="77.5,-96 17.5,-96 17.5,-77 77.5,-77 77.5,-96"/>
<text text-anchor="middle" x="47.5" y="-84" font-family="Helvetica,sans-Serif" font-size="10.00">std::string</text>
</a>
</g>
</g>
<!-- Node2&#45;&gt;Node1 -->
<g id="edge1" class="edge">
<title>Node2&#45;&gt;Node1</title>
<path fill="none" stroke="#9a32cd" stroke-dasharray="5,2" d="M47.5,-65.42C47.5,-50.43 47.5,-30.66 47.5,-19.39"/>
<polygon fill="#9a32cd" stroke="#9a32cd" points="44,-65.09 47.5,-75.09 51,-65.09 44,-65.09"/>
<text text-anchor="middle" x="92" y="-51" font-family="Helvetica,sans-Serif" font-size="10.00"> stackElements</text>
<text text-anchor="middle" x="92" y="-40" font-family="Helvetica,sans-Serif" font-size="10.00">tempStackElements</text>
</g>
<!-- Node3 -->
<g id="node3" class="node">
<title>Node3</title>
<g id="a_node3"><a xlink:title=" ">
<polygon fill="white" stroke="#666666" points="95,-163 0,-163 0,-133 95,-133 95,-163"/>
<text text-anchor="start" x="8" y="-151" font-family="Helvetica,sans-Serif" font-size="10.00">std::basic_string&lt;</text>
<text text-anchor="middle" x="47.5" y="-140" font-family="Helvetica,sans-Serif" font-size="10.00"> Char &gt;</text>
</a>
</g>
</g>
<!-- Node3&#45;&gt;Node2 -->
<g id="edge2" class="edge">
<title>Node3&#45;&gt;Node2</title>
<path fill="none" stroke="#63b8ff" d="M47.5,-121.13C47.5,-112.29 47.5,-102.99 47.5,-96.42"/>
<polygon fill="#63b8ff" stroke="#63b8ff" points="44,-121.08 47.5,-131.08 51,-121.08 44,-121.08"/>
</g>
</g>
</svg>
