<?xml version="1.0" encoding="UTF-8" standalone="no"?>
<!DOCTYPE svg PUBLIC "-//W3C//DTD SVG 1.1//EN"
 "http://www.w3.org/Graphics/SVG/1.1/DTD/svg11.dtd">
<!-- Generated by graphviz version 7.0.3 (0)
 -->
<!-- Title: include/logicProof.h Pages: 1 -->
<svg width="218pt" height="192pt"
 viewBox="0.00 0.00 218.00 192.00" xmlns="http://www.w3.org/2000/svg" xmlns:xlink="http://www.w3.org/1999/xlink">
<g id="graph0" class="graph" transform="scale(1 1) rotate(0) translate(4 188)">
<title>include/logicProof.h</title>
<!-- Node1 -->
<g id="node1" class="node">
<title>Node1</title>
<g id="a_node1"><a xlink:title="Header file for logicProof.cpp.">
<polygon fill="#999999" stroke="#666666" points="149.5,-184 47.5,-184 47.5,-165 149.5,-165 149.5,-184"/>
<text text-anchor="middle" x="98.5" y="-172" font-family="Helvetica,sans-Serif" font-size="10.00">include/logicProof.h</text>
</a>
</g>
</g>
<!-- Node2 -->
<g id="node2" class="node">
<title>Node2</title>
<g id="a_node2"><a xlink:title=" ">
<polygon fill="#e0e0e0" stroke="#999999" points="59,-129 0,-129 0,-110 59,-110 59,-129"/>
<text text-anchor="middle" x="29.5" y="-117" font-family="Helvetica,sans-Serif" font-size="10.00">stdexcept</text>
</a>
</g>
</g>
<!-- Node1&#45;&gt;Node2 -->
<g id="edge1" class="edge">
<title>Node1&#45;&gt;Node2</title>
<path fill="none" stroke="#63b8ff" d="M86.8,-164.51C76.72,-156.77 61.96,-145.43 49.94,-136.2"/>
<polygon fill="#63b8ff" stroke="#63b8ff" points="52.29,-133.6 42.23,-130.28 48.03,-139.15 52.29,-133.6"/>
</g>
<!-- Node3 -->
<g id="node3" class="node">
<title>Node3</title>
<g id="a_node3"><a xlink:href="proofLine_8h.html" target="_top" xlink:title="Header file for proofLine.cpp.">
<polygon fill="white" stroke="#666666" points="210,-74 145,-74 145,-55 210,-55 210,-74"/>
<text text-anchor="middle" x="177.5" y="-62" font-family="Helvetica,sans-Serif" font-size="10.00">proofLine.h</text>
</a>
</g>
</g>
<!-- Node1&#45;&gt;Node3 -->
<g id="edge2" class="edge">
<title>Node1&#45;&gt;Node3</title>
<path fill="none" stroke="#63b8ff" d="M104.96,-164.66C117.87,-147.02 147.05,-107.12 164.21,-83.67"/>
<polygon fill="#63b8ff" stroke="#63b8ff" points="166.97,-85.82 170.05,-75.68 161.32,-81.69 166.97,-85.82"/>
</g>
<!-- Node6 -->
<g id="node6" class="node">
<title>Node6</title>
<g id="a_node6"><a xlink:href="utils_8h.html" target="_top" xlink:title="Header file for utils.cpp.">
<polygon fill="white" stroke="#666666" points="120,-129 77,-129 77,-110 120,-110 120,-129"/>
<text text-anchor="middle" x="98.5" y="-117" font-family="Helvetica,sans-Serif" font-size="10.00">utils.h</text>
</a>
</g>
</g>
<!-- Node1&#45;&gt;Node6 -->
<g id="edge5" class="edge">
<title>Node1&#45;&gt;Node6</title>
<path fill="none" stroke="#63b8ff" d="M98.5,-164.75C98.5,-158.27 98.5,-149.16 98.5,-140.9"/>
<polygon fill="#63b8ff" stroke="#63b8ff" points="102,-140.96 98.5,-130.96 95,-140.96 102,-140.96"/>
</g>
<!-- Node4 -->
<g id="node4" class="node">
<title>Node4</title>
<g id="a_node4"><a xlink:title=" ">
<polygon fill="#e0e0e0" stroke="#999999" points="96.5,-19 42.5,-19 42.5,0 96.5,0 96.5,-19"/>
<text text-anchor="middle" x="69.5" y="-7" font-family="Helvetica,sans-Serif" font-size="10.00">iostream</text>
</a>
</g>
</g>
<!-- Node3&#45;&gt;Node4 -->
<g id="edge3" class="edge">
<title>Node3&#45;&gt;Node4</title>
<path fill="none" stroke="#63b8ff" d="M159.18,-54.51C142.32,-46.24 117.07,-33.84 97.65,-24.31"/>
<polygon fill="#63b8ff" stroke="#63b8ff" points="99.43,-21.29 88.91,-20.02 96.34,-27.57 99.43,-21.29"/>
</g>
<!-- Node5 -->
<g id="node5" class="node">
<title>Node5</title>
<g id="a_node5"><a xlink:title=" ">
<polygon fill="#e0e0e0" stroke="#999999" points="177,-19 136,-19 136,0 177,0 177,-19"/>
<text text-anchor="middle" x="156.5" y="-7" font-family="Helvetica,sans-Serif" font-size="10.00">string</text>
</a>
</g>
</g>
<!-- Node3&#45;&gt;Node5 -->
<g id="edge4" class="edge">
<title>Node3&#45;&gt;Node5</title>
<path fill="none" stroke="#63b8ff" d="M174.03,-54.75C171.37,-48.04 167.6,-38.52 164.24,-30.02"/>
<polygon fill="#63b8ff" stroke="#63b8ff" points="167.54,-28.86 160.6,-20.85 161.03,-31.44 167.54,-28.86"/>
</g>
<!-- Node7 -->
<g id="node7" class="node">
<title>Node7</title>
<g id="a_node7"><a xlink:title=" ">
<polygon fill="#e0e0e0" stroke="#999999" points="126.5,-74 70.5,-74 70.5,-55 126.5,-55 126.5,-74"/>
<text text-anchor="middle" x="98.5" y="-62" font-family="Helvetica,sans-Serif" font-size="10.00">algorithm</text>
</a>
</g>
</g>
<!-- Node6&#45;&gt;Node7 -->
<g id="edge6" class="edge">
<title>Node6&#45;&gt;Node7</title>
<path fill="none" stroke="#63b8ff" d="M98.5,-109.75C98.5,-103.27 98.5,-94.16 98.5,-85.9"/>
<polygon fill="#63b8ff" stroke="#63b8ff" points="102,-85.96 98.5,-75.96 95,-85.96 102,-85.96"/>
</g>
<!-- Node8 -->
<g id="node8" class="node">
<title>Node8</title>
<g id="a_node8"><a xlink:href="stack_8h.html" target="_top" xlink:title="Header file for stack.cpp.">
<polygon fill="white" stroke="#666666" points="52,-74 3,-74 3,-55 52,-55 52,-74"/>
<text text-anchor="middle" x="27.5" y="-62" font-family="Helvetica,sans-Serif" font-size="10.00">stack.h</text>
</a>
</g>
</g>
<!-- Node6&#45;&gt;Node8 -->
<g id="edge7" class="edge">
<title>Node6&#45;&gt;Node8</title>
<path fill="none" stroke="#63b8ff" d="M86.46,-109.51C76.09,-101.77 60.9,-90.43 48.53,-81.2"/>
<polygon fill="#63b8ff" stroke="#63b8ff" points="50.69,-78.44 40.58,-75.26 46.5,-84.05 50.69,-78.44"/>
</g>
<!-- Node8&#45;&gt;Node4 -->
<g id="edge8" class="edge">
<title>Node8&#45;&gt;Node4</title>
<path fill="none" stroke="#63b8ff" d="M34.44,-54.75C40.12,-47.58 48.34,-37.2 55.39,-28.3"/>
<polygon fill="#63b8ff" stroke="#63b8ff" points="58.01,-30.64 61.47,-20.63 52.52,-26.29 58.01,-30.64"/>
</g>
<!-- Node8&#45;&gt;Node5 -->
<g id="edge9" class="edge">
<title>Node8&#45;&gt;Node5</title>
<path fill="none" stroke="#63b8ff" d="M49.38,-54.51C70.23,-45.94 101.84,-32.96 125.32,-23.31"/>
<polygon fill="#63b8ff" stroke="#63b8ff" points="126.47,-26.62 134.39,-19.58 123.81,-20.15 126.47,-26.62"/>
</g>
</g>
</svg>
