<?xml version="1.0" encoding="UTF-8" standalone="no"?>
<!DOCTYPE svg PUBLIC "-//W3C//DTD SVG 1.1//EN"
 "http://www.w3.org/Graphics/SVG/1.1/DTD/svg11.dtd">
<!-- Generated by graphviz version 7.0.3 (0)
 -->
<!-- Title: include/logicProof.h Pages: 1 -->
<svg width="202pt" height="137pt"
 viewBox="0.00 0.00 201.50 137.00" xmlns="http://www.w3.org/2000/svg" xmlns:xlink="http://www.w3.org/1999/xlink">
<g id="graph0" class="graph" transform="scale(1 1) rotate(0) translate(4 133)">
<title>include/logicProof.h</title>
<!-- Node1 -->
<g id="node1" class="node">
<title>Node1</title>
<g id="a_node1"><a xlink:title="Header file for logicProof.cpp.">
<polygon fill="#999999" stroke="#666666" points="144,-129 42,-129 42,-110 144,-110 144,-129"/>
<text text-anchor="middle" x="93" y="-117" font-family="Helvetica,sans-Serif" font-size="10.00">include/logicProof.h</text>
</a>
</g>
</g>
<!-- Node2 -->
<g id="node2" class="node">
<title>Node2</title>
<g id="a_node2"><a xlink:href="main_8h.html" target="_top" xlink:title="Header file for main.cpp.">
<polygon fill="white" stroke="#666666" points="80,-74 0,-74 0,-55 80,-55 80,-74"/>
<text text-anchor="middle" x="40" y="-62" font-family="Helvetica,sans-Serif" font-size="10.00">include/main.h</text>
</a>
</g>
</g>
<!-- Node1&#45;&gt;Node2 -->
<g id="edge1" class="edge">
<title>Node1&#45;&gt;Node2</title>
<path fill="none" stroke="#63b8ff" d="M76.28,-101.78C67.22,-92.72 56.4,-81.9 48.94,-74.44"/>
<polygon fill="#63b8ff" stroke="#63b8ff" points="73.63,-104.08 83.18,-108.68 78.58,-99.13 73.63,-104.08"/>
</g>
<!-- Node4 -->
<g id="node4" class="node">
<title>Node4</title>
<g id="a_node4"><a xlink:href="logicProof_8cpp.html" target="_top" xlink:title="Source file for logicProof.h.">
<polygon fill="white" stroke="#666666" points="193.5,-74 98.5,-74 98.5,-55 193.5,-55 193.5,-74"/>
<text text-anchor="middle" x="146" y="-62" font-family="Helvetica,sans-Serif" font-size="10.00">src/logicProof.cpp</text>
</a>
</g>
</g>
<!-- Node1&#45;&gt;Node4 -->
<g id="edge3" class="edge">
<title>Node1&#45;&gt;Node4</title>
<path fill="none" stroke="#63b8ff" d="M109.72,-101.78C118.78,-92.72 129.6,-81.9 137.06,-74.44"/>
<polygon fill="#63b8ff" stroke="#63b8ff" points="107.42,-99.13 102.82,-108.68 112.37,-104.08 107.42,-99.13"/>
</g>
<!-- Node3 -->
<g id="node3" class="node">
<title>Node3</title>
<g id="a_node3"><a xlink:href="main_8cpp.html" target="_top" xlink:title="Source file for main.h.">
<polygon fill="white" stroke="#666666" points="76.5,-19 3.5,-19 3.5,0 76.5,0 76.5,-19"/>
<text text-anchor="middle" x="40" y="-7" font-family="Helvetica,sans-Serif" font-size="10.00">src/main.cpp</text>
</a>
</g>
</g>
<!-- Node2&#45;&gt;Node3 -->
<g id="edge2" class="edge">
<title>Node2&#45;&gt;Node3</title>
<path fill="none" stroke="#63b8ff" d="M40,-43.35C40,-35.1 40,-25.97 40,-19.44"/>
<polygon fill="#63b8ff" stroke="#63b8ff" points="36.5,-43.23 40,-53.23 43.5,-43.23 36.5,-43.23"/>
</g>
</g>
</svg>
