<?xml version="1.0" encoding="UTF-8" standalone="no"?>
<!DOCTYPE svg PUBLIC "-//W3C//DTD SVG 1.1//EN"
 "http://www.w3.org/Graphics/SVG/1.1/DTD/svg11.dtd">
<!-- Generated by graphviz version 7.0.3 (0)
 -->
<!-- Title: src/main.cpp Pages: 1 -->
<svg width="215pt" height="302pt"
 viewBox="0.00 0.00 215.00 302.00" xmlns="http://www.w3.org/2000/svg" xmlns:xlink="http://www.w3.org/1999/xlink">
<g id="graph0" class="graph" transform="scale(1 1) rotate(0) translate(4 298)">
<title>src/main.cpp</title>
<!-- Node1 -->
<g id="node1" class="node">
<title>Node1</title>
<g id="a_node1"><a xlink:title="Source file for main.h.">
<polygon fill="#999999" stroke="#666666" points="120,-294 47,-294 47,-275 120,-275 120,-294"/>
<text text-anchor="middle" x="83.5" y="-282" font-family="Helvetica,sans-Serif" font-size="10.00">src/main.cpp</text>
</a>
</g>
</g>
<!-- Node2 -->
<g id="node2" class="node">
<title>Node2</title>
<g id="a_node2"><a xlink:href="main_8h.html" target="_top" xlink:title="Header file for main.cpp.">
<polygon fill="white" stroke="#666666" points="128,-239 39,-239 39,-220 128,-220 128,-239"/>
<text text-anchor="middle" x="83.5" y="-227" font-family="Helvetica,sans-Serif" font-size="10.00">../include/main.h</text>
</a>
</g>
</g>
<!-- Node1&#45;&gt;Node2 -->
<g id="edge1" class="edge">
<title>Node1&#45;&gt;Node2</title>
<path fill="none" stroke="#63b8ff" d="M83.5,-274.75C83.5,-268.27 83.5,-259.16 83.5,-250.9"/>
<polygon fill="#63b8ff" stroke="#63b8ff" points="87,-250.96 83.5,-240.96 80,-250.96 87,-250.96"/>
</g>
<!-- Node3 -->
<g id="node3" class="node">
<title>Node3</title>
<g id="a_node3"><a xlink:href="logicProof_8h.html" target="_top" xlink:title="Header file for logicProof.cpp.">
<polygon fill="white" stroke="#666666" points="147.5,-184 79.5,-184 79.5,-165 147.5,-165 147.5,-184"/>
<text text-anchor="middle" x="113.5" y="-172" font-family="Helvetica,sans-Serif" font-size="10.00">logicProof.h</text>
</a>
</g>
</g>
<!-- Node2&#45;&gt;Node3 -->
<g id="edge2" class="edge">
<title>Node2&#45;&gt;Node3</title>
<path fill="none" stroke="#63b8ff" d="M88.45,-219.75C92.34,-212.88 97.89,-203.08 102.78,-194.45"/>
<polygon fill="#63b8ff" stroke="#63b8ff" points="105.81,-196.19 107.69,-185.76 99.72,-192.74 105.81,-196.19"/>
</g>
<!-- Node5 -->
<g id="node5" class="node">
<title>Node5</title>
<g id="a_node5"><a xlink:href="proofLine_8h.html" target="_top" xlink:title="Header file for proofLine.cpp.">
<polygon fill="white" stroke="#666666" points="207,-74 142,-74 142,-55 207,-55 207,-74"/>
<text text-anchor="middle" x="174.5" y="-62" font-family="Helvetica,sans-Serif" font-size="10.00">proofLine.h</text>
</a>
</g>
</g>
<!-- Node2&#45;&gt;Node5 -->
<g id="edge12" class="edge">
<title>Node2&#45;&gt;Node5</title>
<path fill="none" stroke="#63b8ff" d="M106.67,-219.62C122.8,-212.34 143.64,-200.51 156.5,-184 178.7,-155.49 179.06,-111.13 177,-85.54"/>
<polygon fill="#63b8ff" stroke="#63b8ff" points="180.51,-85.44 176,-75.85 173.55,-86.16 180.51,-85.44"/>
</g>
<!-- Node8 -->
<g id="node8" class="node">
<title>Node8</title>
<g id="a_node8"><a xlink:href="utils_8h.html" target="_top" xlink:title="Header file for utils.cpp.">
<polygon fill="white" stroke="#666666" points="69,-129 26,-129 26,-110 69,-110 69,-129"/>
<text text-anchor="middle" x="47.5" y="-117" font-family="Helvetica,sans-Serif" font-size="10.00">utils.h</text>
</a>
</g>
</g>
<!-- Node2&#45;&gt;Node8 -->
<g id="edge14" class="edge">
<title>Node2&#45;&gt;Node8</title>
<path fill="none" stroke="#63b8ff" d="M80.55,-219.66C74.81,-202.42 61.97,-163.9 54.09,-140.27"/>
<polygon fill="#63b8ff" stroke="#63b8ff" points="57.45,-139.28 50.97,-130.9 50.81,-141.49 57.45,-139.28"/>
</g>
<!-- Node10 -->
<g id="node10" class="node">
<title>Node10</title>
<g id="a_node10"><a xlink:href="stack_8h.html" target="_top" xlink:title="Header file for stack.cpp.">
<polygon fill="white" stroke="#666666" points="49,-74 0,-74 0,-55 49,-55 49,-74"/>
<text text-anchor="middle" x="24.5" y="-62" font-family="Helvetica,sans-Serif" font-size="10.00">stack.h</text>
</a>
</g>
</g>
<!-- Node2&#45;&gt;Node10 -->
<g id="edge13" class="edge">
<title>Node2&#45;&gt;Node10</title>
<path fill="none" stroke="#63b8ff" d="M74.74,-219.62C59.36,-203.32 28.05,-166.84 16.5,-129 12.12,-114.66 14.58,-97.81 17.88,-85.06"/>
<polygon fill="#63b8ff" stroke="#63b8ff" points="21.15,-86.36 20.68,-75.77 14.45,-84.34 21.15,-86.36"/>
</g>
<!-- Node4 -->
<g id="node4" class="node">
<title>Node4</title>
<g id="a_node4"><a xlink:title=" ">
<polygon fill="#e0e0e0" stroke="#999999" points="146,-129 87,-129 87,-110 146,-110 146,-129"/>
<text text-anchor="middle" x="116.5" y="-117" font-family="Helvetica,sans-Serif" font-size="10.00">stdexcept</text>
</a>
</g>
</g>
<!-- Node3&#45;&gt;Node4 -->
<g id="edge3" class="edge">
<title>Node3&#45;&gt;Node4</title>
<path fill="none" stroke="#63b8ff" d="M114,-164.75C114.36,-158.27 114.88,-149.16 115.35,-140.9"/>
<polygon fill="#63b8ff" stroke="#63b8ff" points="118.84,-141.13 115.91,-130.95 111.85,-140.74 118.84,-141.13"/>
</g>
<!-- Node3&#45;&gt;Node5 -->
<g id="edge4" class="edge">
<title>Node3&#45;&gt;Node5</title>
<path fill="none" stroke="#63b8ff" d="M123.98,-164.6C133.2,-156.26 146.39,-143 154.5,-129 162.4,-115.36 167.56,-98.22 170.66,-85.19"/>
<polygon fill="#63b8ff" stroke="#63b8ff" points="174.02,-86.2 172.7,-75.69 167.18,-84.73 174.02,-86.2"/>
</g>
<!-- Node3&#45;&gt;Node8 -->
<g id="edge7" class="edge">
<title>Node3&#45;&gt;Node8</title>
<path fill="none" stroke="#63b8ff" d="M102.3,-164.51C92.76,-156.85 78.83,-145.66 67.39,-136.47"/>
<polygon fill="#63b8ff" stroke="#63b8ff" points="69.7,-133.84 59.71,-130.31 65.32,-139.3 69.7,-133.84"/>
</g>
<!-- Node6 -->
<g id="node6" class="node">
<title>Node6</title>
<g id="a_node6"><a xlink:title=" ">
<polygon fill="#e0e0e0" stroke="#999999" points="93.5,-19 39.5,-19 39.5,0 93.5,0 93.5,-19"/>
<text text-anchor="middle" x="66.5" y="-7" font-family="Helvetica,sans-Serif" font-size="10.00">iostream</text>
</a>
</g>
</g>
<!-- Node5&#45;&gt;Node6 -->
<g id="edge5" class="edge">
<title>Node5&#45;&gt;Node6</title>
<path fill="none" stroke="#63b8ff" d="M156.18,-54.51C139.32,-46.24 114.07,-33.84 94.65,-24.31"/>
<polygon fill="#63b8ff" stroke="#63b8ff" points="96.43,-21.29 85.91,-20.02 93.34,-27.57 96.43,-21.29"/>
</g>
<!-- Node7 -->
<g id="node7" class="node">
<title>Node7</title>
<g id="a_node7"><a xlink:title=" ">
<polygon fill="#e0e0e0" stroke="#999999" points="174,-19 133,-19 133,0 174,0 174,-19"/>
<text text-anchor="middle" x="153.5" y="-7" font-family="Helvetica,sans-Serif" font-size="10.00">string</text>
</a>
</g>
</g>
<!-- Node5&#45;&gt;Node7 -->
<g id="edge6" class="edge">
<title>Node5&#45;&gt;Node7</title>
<path fill="none" stroke="#63b8ff" d="M171.03,-54.75C168.37,-48.04 164.6,-38.52 161.24,-30.02"/>
<polygon fill="#63b8ff" stroke="#63b8ff" points="164.54,-28.86 157.6,-20.85 158.03,-31.44 164.54,-28.86"/>
</g>
<!-- Node9 -->
<g id="node9" class="node">
<title>Node9</title>
<g id="a_node9"><a xlink:title=" ">
<polygon fill="#e0e0e0" stroke="#999999" points="123.5,-74 67.5,-74 67.5,-55 123.5,-55 123.5,-74"/>
<text text-anchor="middle" x="95.5" y="-62" font-family="Helvetica,sans-Serif" font-size="10.00">algorithm</text>
</a>
</g>
</g>
<!-- Node8&#45;&gt;Node9 -->
<g id="edge8" class="edge">
<title>Node8&#45;&gt;Node9</title>
<path fill="none" stroke="#63b8ff" d="M55.43,-109.75C62.06,-102.43 71.72,-91.76 79.89,-82.74"/>
<polygon fill="#63b8ff" stroke="#63b8ff" points="82.27,-85.33 86.39,-75.56 77.08,-80.63 82.27,-85.33"/>
</g>
<!-- Node8&#45;&gt;Node10 -->
<g id="edge9" class="edge">
<title>Node8&#45;&gt;Node10</title>
<path fill="none" stroke="#63b8ff" d="M43.7,-109.75C40.76,-102.96 36.56,-93.3 32.85,-84.73"/>
<polygon fill="#63b8ff" stroke="#63b8ff" points="36.17,-83.61 28.98,-75.83 29.75,-86.4 36.17,-83.61"/>
</g>
<!-- Node10&#45;&gt;Node6 -->
<g id="edge10" class="edge">
<title>Node10&#45;&gt;Node6</title>
<path fill="none" stroke="#63b8ff" d="M31.44,-54.75C37.12,-47.58 45.34,-37.2 52.39,-28.3"/>
<polygon fill="#63b8ff" stroke="#63b8ff" points="55.01,-30.64 58.47,-20.63 49.52,-26.29 55.01,-30.64"/>
</g>
<!-- Node10&#45;&gt;Node7 -->
<g id="edge11" class="edge">
<title>Node10&#45;&gt;Node7</title>
<path fill="none" stroke="#63b8ff" d="M46.38,-54.51C67.23,-45.94 98.84,-32.96 122.32,-23.31"/>
<polygon fill="#63b8ff" stroke="#63b8ff" points="123.47,-26.62 131.39,-19.58 120.81,-20.15 123.47,-26.62"/>
</g>
</g>
</svg>
