<?xml version="1.0" encoding="UTF-8" standalone="no"?>
<!DOCTYPE svg PUBLIC "-//W3C//DTD SVG 1.1//EN"
 "http://www.w3.org/Graphics/SVG/1.1/DTD/svg11.dtd">
<!-- Generated by graphviz version 7.0.3 (0)
 -->
<!-- Title: include/proofLine.h Pages: 1 -->
<svg width="288pt" height="192pt"
 viewBox="0.00 0.00 288.00 192.00" xmlns="http://www.w3.org/2000/svg" xmlns:xlink="http://www.w3.org/1999/xlink">
<g id="graph0" class="graph" transform="scale(1 1) rotate(0) translate(4 188)">
<title>include/proofLine.h</title>
<!-- Node1 -->
<g id="node1" class="node">
<title>Node1</title>
<g id="a_node1"><a xlink:title="Header file for proofLine.cpp.">
<polygon fill="#999999" stroke="#666666" points="168,-184 70,-184 70,-165 168,-165 168,-184"/>
<text text-anchor="middle" x="119" y="-172" font-family="Helvetica,sans-Serif" font-size="10.00">include/proofLine.h</text>
</a>
</g>
</g>
<!-- Node2 -->
<g id="node2" class="node">
<title>Node2</title>
<g id="a_node2"><a xlink:href="logicProof_8h.html" target="_top" xlink:title="Header file for logicProof.cpp.">
<polygon fill="white" stroke="#666666" points="170,-129 68,-129 68,-110 170,-110 170,-129"/>
<text text-anchor="middle" x="119" y="-117" font-family="Helvetica,sans-Serif" font-size="10.00">include/logicProof.h</text>
</a>
</g>
</g>
<!-- Node1&#45;&gt;Node2 -->
<g id="edge1" class="edge">
<title>Node1&#45;&gt;Node2</title>
<path fill="none" stroke="#63b8ff" d="M119,-153.35C119,-145.1 119,-135.97 119,-129.44"/>
<polygon fill="#63b8ff" stroke="#63b8ff" points="115.5,-153.23 119,-163.23 122.5,-153.23 115.5,-153.23"/>
</g>
<!-- Node3 -->
<g id="node3" class="node">
<title>Node3</title>
<g id="a_node3"><a xlink:href="main_8h.html" target="_top" xlink:title="Header file for main.cpp.">
<polygon fill="white" stroke="#666666" points="80,-74 0,-74 0,-55 80,-55 80,-74"/>
<text text-anchor="middle" x="40" y="-62" font-family="Helvetica,sans-Serif" font-size="10.00">include/main.h</text>
</a>
</g>
</g>
<!-- Node1&#45;&gt;Node3 -->
<g id="edge5" class="edge">
<title>Node1&#45;&gt;Node3</title>
<path fill="none" stroke="#63b8ff" d="M91.84,-158.73C80.25,-151.2 67.47,-141.07 59,-129 47.11,-112.04 42.54,-87.54 40.88,-74.48"/>
<polygon fill="#63b8ff" stroke="#63b8ff" points="89.93,-161.66 100.29,-163.87 93.57,-155.68 89.93,-161.66"/>
</g>
<!-- Node6 -->
<g id="node6" class="node">
<title>Node6</title>
<g id="a_node6"><a xlink:href="proofLine_8cpp.html" target="_top" xlink:title="Source file for proofLine.h.">
<polygon fill="white" stroke="#666666" points="280,-129 188,-129 188,-110 280,-110 280,-129"/>
<text text-anchor="middle" x="234" y="-117" font-family="Helvetica,sans-Serif" font-size="10.00">src/proofLine.cpp</text>
</a>
</g>
</g>
<!-- Node1&#45;&gt;Node6 -->
<g id="edge6" class="edge">
<title>Node1&#45;&gt;Node6</title>
<path fill="none" stroke="#63b8ff" d="M148.73,-159.8C169.55,-150.2 196.76,-137.66 214.78,-129.36"/>
<polygon fill="#63b8ff" stroke="#63b8ff" points="147.5,-156.51 139.88,-163.88 150.43,-162.87 147.5,-156.51"/>
</g>
<!-- Node2&#45;&gt;Node3 -->
<g id="edge2" class="edge">
<title>Node2&#45;&gt;Node3</title>
<path fill="none" stroke="#63b8ff" d="M96.18,-103.19C82.24,-93.84 64.9,-82.21 53.2,-74.36"/>
<polygon fill="#63b8ff" stroke="#63b8ff" points="94.09,-106 104.34,-108.67 97.99,-100.19 94.09,-106"/>
</g>
<!-- Node5 -->
<g id="node5" class="node">
<title>Node5</title>
<g id="a_node5"><a xlink:href="logicProof_8cpp.html" target="_top" xlink:title="Source file for logicProof.h.">
<polygon fill="white" stroke="#666666" points="193.5,-74 98.5,-74 98.5,-55 193.5,-55 193.5,-74"/>
<text text-anchor="middle" x="146" y="-62" font-family="Helvetica,sans-Serif" font-size="10.00">src/logicProof.cpp</text>
</a>
</g>
</g>
<!-- Node2&#45;&gt;Node5 -->
<g id="edge4" class="edge">
<title>Node2&#45;&gt;Node5</title>
<path fill="none" stroke="#63b8ff" d="M128.68,-99.5C133.03,-90.96 137.96,-81.28 141.44,-74.44"/>
<polygon fill="#63b8ff" stroke="#63b8ff" points="125.57,-97.9 124.15,-108.4 131.8,-101.08 125.57,-97.9"/>
</g>
<!-- Node4 -->
<g id="node4" class="node">
<title>Node4</title>
<g id="a_node4"><a xlink:href="main_8cpp.html" target="_top" xlink:title="Source file for main.h.">
<polygon fill="white" stroke="#666666" points="76.5,-19 3.5,-19 3.5,0 76.5,0 76.5,-19"/>
<text text-anchor="middle" x="40" y="-7" font-family="Helvetica,sans-Serif" font-size="10.00">src/main.cpp</text>
</a>
</g>
</g>
<!-- Node3&#45;&gt;Node4 -->
<g id="edge3" class="edge">
<title>Node3&#45;&gt;Node4</title>
<path fill="none" stroke="#63b8ff" d="M40,-43.35C40,-35.1 40,-25.97 40,-19.44"/>
<polygon fill="#63b8ff" stroke="#63b8ff" points="36.5,-43.23 40,-53.23 43.5,-43.23 36.5,-43.23"/>
</g>
</g>
</svg>
