<?xml version="1.0" encoding="UTF-8" standalone="no"?>
<!DOCTYPE svg PUBLIC "-//W3C//DTD SVG 1.1//EN"
 "http://www.w3.org/Graphics/SVG/1.1/DTD/svg11.dtd">
<!-- Generated by graphviz version 7.0.3 (0)
 -->
<!-- Title: src/stack.cpp Pages: 1 -->
<svg width="122pt" height="137pt"
 viewBox="0.00 0.00 121.50 137.00" xmlns="http://www.w3.org/2000/svg" xmlns:xlink="http://www.w3.org/1999/xlink">
<g id="graph0" class="graph" transform="scale(1 1) rotate(0) translate(4 133)">
<title>src/stack.cpp</title>
<!-- Node1 -->
<g id="node1" class="node">
<title>Node1</title>
<g id="a_node1"><a xlink:title="Source file for stack.h.">
<polygon fill="#999999" stroke="#666666" points="98,-129 22,-129 22,-110 98,-110 98,-129"/>
<text text-anchor="middle" x="60" y="-117" font-family="Helvetica,sans-Serif" font-size="10.00">src/stack.cpp</text>
</a>
</g>
</g>
<!-- Node2 -->
<g id="node2" class="node">
<title>Node2</title>
<g id="a_node2"><a xlink:href="stack_8h.html" target="_top" xlink:title="Header file for stack.cpp.">
<polygon fill="white" stroke="#666666" points="106,-74 14,-74 14,-55 106,-55 106,-74"/>
<text text-anchor="middle" x="60" y="-62" font-family="Helvetica,sans-Serif" font-size="10.00">../include/stack.h</text>
</a>
</g>
</g>
<!-- Node1&#45;&gt;Node2 -->
<g id="edge1" class="edge">
<title>Node1&#45;&gt;Node2</title>
<path fill="none" stroke="#63b8ff" d="M60,-109.75C60,-103.27 60,-94.16 60,-85.9"/>
<polygon fill="#63b8ff" stroke="#63b8ff" points="63.5,-85.96 60,-75.96 56.5,-85.96 63.5,-85.96"/>
</g>
<!-- Node3 -->
<g id="node3" class="node">
<title>Node3</title>
<g id="a_node3"><a xlink:title=" ">
<polygon fill="#e0e0e0" stroke="#999999" points="54,-19 0,-19 0,0 54,0 54,-19"/>
<text text-anchor="middle" x="27" y="-7" font-family="Helvetica,sans-Serif" font-size="10.00">iostream</text>
</a>
</g>
</g>
<!-- Node2&#45;&gt;Node3 -->
<g id="edge2" class="edge">
<title>Node2&#45;&gt;Node3</title>
<path fill="none" stroke="#63b8ff" d="M54.55,-54.75C50.23,-47.81 44.04,-37.86 38.62,-29.16"/>
<polygon fill="#63b8ff" stroke="#63b8ff" points="41.62,-27.37 33.37,-20.73 35.68,-31.07 41.62,-27.37"/>
</g>
<!-- Node4 -->
<g id="node4" class="node">
<title>Node4</title>
<g id="a_node4"><a xlink:title=" ">
<polygon fill="#e0e0e0" stroke="#999999" points="113.5,-19 72.5,-19 72.5,0 113.5,0 113.5,-19"/>
<text text-anchor="middle" x="93" y="-7" font-family="Helvetica,sans-Serif" font-size="10.00">string</text>
</a>
</g>
</g>
<!-- Node2&#45;&gt;Node4 -->
<g id="edge3" class="edge">
<title>Node2&#45;&gt;Node4</title>
<path fill="none" stroke="#63b8ff" d="M65.45,-54.75C69.77,-47.81 75.96,-37.86 81.38,-29.16"/>
<polygon fill="#63b8ff" stroke="#63b8ff" points="84.32,-31.07 86.63,-20.73 78.38,-27.37 84.32,-31.07"/>
</g>
</g>
</svg>
