<?xml version="1.0" encoding="UTF-8" standalone="no"?>
<!DOCTYPE svg PUBLIC "-//W3C//DTD SVG 1.1//EN"
 "http://www.w3.org/Graphics/SVG/1.1/DTD/svg11.dtd">
<!-- Generated by graphviz version 7.0.3 (0)
 -->
<!-- Title: include/stack.h Pages: 1 -->
<svg width="280pt" height="247pt"
 viewBox="0.00 0.00 280.00 247.00" xmlns="http://www.w3.org/2000/svg" xmlns:xlink="http://www.w3.org/1999/xlink">
<g id="graph0" class="graph" transform="scale(1 1) rotate(0) translate(4 243)">
<title>include/stack.h</title>
<!-- Node1 -->
<g id="node1" class="node">
<title>Node1</title>
<g id="a_node1"><a xlink:title="Header file for stack.cpp.">
<polygon fill="#999999" stroke="#666666" points="149.5,-239 66.5,-239 66.5,-220 149.5,-220 149.5,-239"/>
<text text-anchor="middle" x="108" y="-227" font-family="Helvetica,sans-Serif" font-size="10.00">include/stack.h</text>
</a>
</g>
</g>
<!-- Node2 -->
<g id="node2" class="node">
<title>Node2</title>
<g id="a_node2"><a xlink:href="main_8h.html" target="_top" xlink:title="Header file for main.cpp.">
<polygon fill="white" stroke="#666666" points="80,-74 0,-74 0,-55 80,-55 80,-74"/>
<text text-anchor="middle" x="40" y="-62" font-family="Helvetica,sans-Serif" font-size="10.00">include/main.h</text>
</a>
</g>
</g>
<!-- Node1&#45;&gt;Node2 -->
<g id="edge1" class="edge">
<title>Node1&#45;&gt;Node2</title>
<path fill="none" stroke="#63b8ff" d="M85.62,-212.48C76.59,-204.86 66.93,-195.01 61,-184 41.09,-147.03 39.5,-95.06 39.73,-74.44"/>
<polygon fill="#63b8ff" stroke="#63b8ff" points="83.4,-215.19 93.42,-218.63 87.73,-209.69 83.4,-215.19"/>
</g>
<!-- Node4 -->
<g id="node4" class="node">
<title>Node4</title>
<g id="a_node4"><a xlink:href="utils_8h.html" target="_top" xlink:title="Header file for utils.cpp.">
<polygon fill="white" stroke="#666666" points="146.5,-184 69.5,-184 69.5,-165 146.5,-165 146.5,-184"/>
<text text-anchor="middle" x="108" y="-172" font-family="Helvetica,sans-Serif" font-size="10.00">include/utils.h</text>
</a>
</g>
</g>
<!-- Node1&#45;&gt;Node4 -->
<g id="edge3" class="edge">
<title>Node1&#45;&gt;Node4</title>
<path fill="none" stroke="#63b8ff" d="M108,-208.35C108,-200.1 108,-190.97 108,-184.44"/>
<polygon fill="#63b8ff" stroke="#63b8ff" points="104.5,-208.23 108,-218.23 111.5,-208.23 104.5,-208.23"/>
</g>
<!-- Node8 -->
<g id="node8" class="node">
<title>Node8</title>
<g id="a_node8"><a xlink:href="stack_8cpp.html" target="_top" xlink:title="Source file for stack.h.">
<polygon fill="white" stroke="#666666" points="241,-184 165,-184 165,-165 241,-165 241,-184"/>
<text text-anchor="middle" x="203" y="-172" font-family="Helvetica,sans-Serif" font-size="10.00">src/stack.cpp</text>
</a>
</g>
</g>
<!-- Node1&#45;&gt;Node8 -->
<g id="edge9" class="edge">
<title>Node1&#45;&gt;Node8</title>
<path fill="none" stroke="#63b8ff" d="M133.99,-214C150.99,-204.52 172.65,-192.43 187.12,-184.36"/>
<polygon fill="#63b8ff" stroke="#63b8ff" points="132.46,-210.84 125.44,-218.77 135.88,-216.96 132.46,-210.84"/>
</g>
<!-- Node3 -->
<g id="node3" class="node">
<title>Node3</title>
<g id="a_node3"><a xlink:href="main_8cpp.html" target="_top" xlink:title="Source file for main.h.">
<polygon fill="white" stroke="#666666" points="76.5,-19 3.5,-19 3.5,0 76.5,0 76.5,-19"/>
<text text-anchor="middle" x="40" y="-7" font-family="Helvetica,sans-Serif" font-size="10.00">src/main.cpp</text>
</a>
</g>
</g>
<!-- Node2&#45;&gt;Node3 -->
<g id="edge2" class="edge">
<title>Node2&#45;&gt;Node3</title>
<path fill="none" stroke="#63b8ff" d="M40,-43.35C40,-35.1 40,-25.97 40,-19.44"/>
<polygon fill="#63b8ff" stroke="#63b8ff" points="36.5,-43.23 40,-53.23 43.5,-43.23 36.5,-43.23"/>
</g>
<!-- Node4&#45;&gt;Node2 -->
<g id="edge7" class="edge">
<title>Node4&#45;&gt;Node2</title>
<path fill="none" stroke="#63b8ff" d="M92.96,-155.95C86.46,-147.98 78.98,-138.28 73,-129 61.01,-110.42 49.74,-86.98 43.99,-74.42"/>
<polygon fill="#63b8ff" stroke="#63b8ff" points="90.17,-158.08 99.27,-163.51 95.54,-153.59 90.17,-158.08"/>
</g>
<!-- Node5 -->
<g id="node5" class="node">
<title>Node5</title>
<g id="a_node5"><a xlink:href="logicProof_8h.html" target="_top" xlink:title="Header file for logicProof.cpp.">
<polygon fill="white" stroke="#666666" points="184,-129 82,-129 82,-110 184,-110 184,-129"/>
<text text-anchor="middle" x="133" y="-117" font-family="Helvetica,sans-Serif" font-size="10.00">include/logicProof.h</text>
</a>
</g>
</g>
<!-- Node4&#45;&gt;Node5 -->
<g id="edge4" class="edge">
<title>Node4&#45;&gt;Node5</title>
<path fill="none" stroke="#63b8ff" d="M116.96,-154.5C120.99,-145.96 125.56,-136.28 128.78,-129.44"/>
<polygon fill="#63b8ff" stroke="#63b8ff" points="113.87,-152.84 112.77,-163.38 120.21,-155.83 113.87,-152.84"/>
</g>
<!-- Node7 -->
<g id="node7" class="node">
<title>Node7</title>
<g id="a_node7"><a xlink:href="utils_8cpp.html" target="_top" xlink:title="Source file for utils.h.">
<polygon fill="white" stroke="#666666" points="272,-129 202,-129 202,-110 272,-110 272,-129"/>
<text text-anchor="middle" x="237" y="-117" font-family="Helvetica,sans-Serif" font-size="10.00">src/utils.cpp</text>
</a>
</g>
</g>
<!-- Node4&#45;&gt;Node7 -->
<g id="edge8" class="edge">
<title>Node4&#45;&gt;Node7</title>
<path fill="none" stroke="#63b8ff" d="M140.39,-160.19C163.86,-150.55 194.95,-137.78 215.44,-129.36"/>
<polygon fill="#63b8ff" stroke="#63b8ff" points="139.2,-156.9 131.28,-163.93 141.86,-163.37 139.2,-156.9"/>
</g>
<!-- Node5&#45;&gt;Node2 -->
<g id="edge5" class="edge">
<title>Node5&#45;&gt;Node2</title>
<path fill="none" stroke="#63b8ff" d="M107.56,-104C90.92,-94.52 69.71,-82.43 55.54,-74.36"/>
<polygon fill="#63b8ff" stroke="#63b8ff" points="105.49,-106.85 115.91,-108.76 108.95,-100.77 105.49,-106.85"/>
</g>
<!-- Node6 -->
<g id="node6" class="node">
<title>Node6</title>
<g id="a_node6"><a xlink:href="logicProof_8cpp.html" target="_top" xlink:title="Source file for logicProof.h.">
<polygon fill="white" stroke="#666666" points="193.5,-74 98.5,-74 98.5,-55 193.5,-55 193.5,-74"/>
<text text-anchor="middle" x="146" y="-62" font-family="Helvetica,sans-Serif" font-size="10.00">src/logicProof.cpp</text>
</a>
</g>
</g>
<!-- Node5&#45;&gt;Node6 -->
<g id="edge6" class="edge">
<title>Node5&#45;&gt;Node6</title>
<path fill="none" stroke="#63b8ff" d="M137.87,-98.64C139.91,-90.31 142.19,-81.05 143.81,-74.44"/>
<polygon fill="#63b8ff" stroke="#63b8ff" points="134.49,-97.73 135.51,-108.28 141.29,-99.4 134.49,-97.73"/>
</g>
</g>
</svg>
