<?xml version="1.0" encoding="UTF-8" standalone="no"?>
<!DOCTYPE svg PUBLIC "-//W3C//DTD SVG 1.1//EN"
 "http://www.w3.org/Graphics/SVG/1.1/DTD/svg11.dtd">
<!-- Generated by graphviz version 7.0.3 (0)
 -->
<!-- Title: include/utils.h Pages: 1 -->
<svg width="161pt" height="137pt"
 viewBox="0.00 0.00 160.50 137.00" xmlns="http://www.w3.org/2000/svg" xmlns:xlink="http://www.w3.org/1999/xlink">
<g id="graph0" class="graph" transform="scale(1 1) rotate(0) translate(4 133)">
<title>include/utils.h</title>
<!-- Node1 -->
<g id="node1" class="node">
<title>Node1</title>
<g id="a_node1"><a xlink:title="Header file for utils.cpp.">
<polygon fill="#999999" stroke="#666666" points="101.5,-129 24.5,-129 24.5,-110 101.5,-110 101.5,-129"/>
<text text-anchor="middle" x="63" y="-117" font-family="Helvetica,sans-Serif" font-size="10.00">include/utils.h</text>
</a>
</g>
</g>
<!-- Node2 -->
<g id="node2" class="node">
<title>Node2</title>
<g id="a_node2"><a xlink:title=" ">
<polygon fill="#e0e0e0" stroke="#999999" points="56,-74 0,-74 0,-55 56,-55 56,-74"/>
<text text-anchor="middle" x="28" y="-62" font-family="Helvetica,sans-Serif" font-size="10.00">algorithm</text>
</a>
</g>
</g>
<!-- Node1&#45;&gt;Node2 -->
<g id="edge1" class="edge">
<title>Node1&#45;&gt;Node2</title>
<path fill="none" stroke="#63b8ff" d="M57.22,-109.75C52.59,-102.73 45.93,-92.64 40.13,-83.87"/>
<polygon fill="#63b8ff" stroke="#63b8ff" points="43.17,-82.12 34.74,-75.71 37.33,-85.98 43.17,-82.12"/>
</g>
<!-- Node3 -->
<g id="node3" class="node">
<title>Node3</title>
<g id="a_node3"><a xlink:href="stack_8h.html" target="_top" xlink:title="Header file for stack.cpp.">
<polygon fill="white" stroke="#666666" points="123.5,-74 74.5,-74 74.5,-55 123.5,-55 123.5,-74"/>
<text text-anchor="middle" x="99" y="-62" font-family="Helvetica,sans-Serif" font-size="10.00">stack.h</text>
</a>
</g>
</g>
<!-- Node1&#45;&gt;Node3 -->
<g id="edge2" class="edge">
<title>Node1&#45;&gt;Node3</title>
<path fill="none" stroke="#63b8ff" d="M68.94,-109.75C73.71,-102.73 80.56,-92.64 86.52,-83.87"/>
<polygon fill="#63b8ff" stroke="#63b8ff" points="89.35,-85.93 92.08,-75.69 83.56,-82 89.35,-85.93"/>
</g>
<!-- Node4 -->
<g id="node4" class="node">
<title>Node4</title>
<g id="a_node4"><a xlink:title=" ">
<polygon fill="#e0e0e0" stroke="#999999" points="93,-19 39,-19 39,0 93,0 93,-19"/>
<text text-anchor="middle" x="66" y="-7" font-family="Helvetica,sans-Serif" font-size="10.00">iostream</text>
</a>
</g>
</g>
<!-- Node3&#45;&gt;Node4 -->
<g id="edge3" class="edge">
<title>Node3&#45;&gt;Node4</title>
<path fill="none" stroke="#63b8ff" d="M93.55,-54.75C89.23,-47.81 83.04,-37.86 77.62,-29.16"/>
<polygon fill="#63b8ff" stroke="#63b8ff" points="80.62,-27.37 72.37,-20.73 74.68,-31.07 80.62,-27.37"/>
</g>
<!-- Node5 -->
<g id="node5" class="node">
<title>Node5</title>
<g id="a_node5"><a xlink:title=" ">
<polygon fill="#e0e0e0" stroke="#999999" points="152.5,-19 111.5,-19 111.5,0 152.5,0 152.5,-19"/>
<text text-anchor="middle" x="132" y="-7" font-family="Helvetica,sans-Serif" font-size="10.00">string</text>
</a>
</g>
</g>
<!-- Node3&#45;&gt;Node5 -->
<g id="edge4" class="edge">
<title>Node3&#45;&gt;Node5</title>
<path fill="none" stroke="#63b8ff" d="M104.45,-54.75C108.77,-47.81 114.96,-37.86 120.38,-29.16"/>
<polygon fill="#63b8ff" stroke="#63b8ff" points="123.32,-31.07 125.63,-20.73 117.38,-27.37 123.32,-31.07"/>
</g>
</g>
</svg>
