<?xml version="1.0" encoding="UTF-8" standalone="no"?>
<!DOCTYPE svg PUBLIC "-//W3C//DTD SVG 1.1//EN"
 "http://www.w3.org/Graphics/SVG/1.1/DTD/svg11.dtd">
<!-- Generated by graphviz version 7.0.3 (0)
 -->
<!-- Title: getSubformulas Pages: 1 -->
<svg width="200pt" height="64pt"
 viewBox="0.00 0.00 200.00 64.00" xmlns="http://www.w3.org/2000/svg" xmlns:xlink="http://www.w3.org/1999/xlink">
<g id="graph0" class="graph" transform="scale(1 1) rotate(0) translate(4 60)">
<title>getSubformulas</title>
<!-- Node1 -->
<g id="node1" class="node">
<title>Node1</title>
<g id="a_node1"><a xlink:title="Gets an array of subformulae.">
<polygon fill="#999999" stroke="#666666" points="85,-37 0,-37 0,-18 85,-18 85,-37"/>
<text text-anchor="middle" x="42.5" y="-25" font-family="Helvetica,sans-Serif" font-size="10.00">getSubformulas</text>
</a>
</g>
</g>
<!-- Node2 -->
<g id="node2" class="node">
<title>Node2</title>
<g id="a_node2"><a xlink:href="utils_8cpp.html#a32422df5e46274fb24a354222b40cea1" target="_top" xlink:title="Takes the infix formula given and converts into prefix formula.">
<polygon fill="white" stroke="#666666" points="192,-56 121,-56 121,-37 192,-37 192,-56"/>
<text text-anchor="middle" x="156.5" y="-44" font-family="Helvetica,sans-Serif" font-size="10.00">infixToPrefix</text>
</a>
</g>
</g>
<!-- Node1&#45;&gt;Node2 -->
<g id="edge1" class="edge">
<title>Node1&#45;&gt;Node2</title>
<path fill="none" stroke="#63b8ff" d="M85.2,-34.57C93.15,-35.92 101.51,-37.34 109.58,-38.71"/>
<polygon fill="#63b8ff" stroke="#63b8ff" points="108.79,-42.13 119.23,-40.35 109.96,-35.22 108.79,-42.13"/>
</g>
<!-- Node3 -->
<g id="node3" class="node">
<title>Node3</title>
<g id="a_node3"><a xlink:href="utils_8cpp.html#a671191aa164ea6787d160a38fb29ff82" target="_top" xlink:title="Takes the prefix formula given and converts into infix formula.">
<polygon fill="white" stroke="#666666" points="191.5,-19 121.5,-19 121.5,0 191.5,0 191.5,-19"/>
<text text-anchor="middle" x="156.5" y="-7" font-family="Helvetica,sans-Serif" font-size="10.00">prefixToInfix</text>
</a>
</g>
</g>
<!-- Node1&#45;&gt;Node3 -->
<g id="edge2" class="edge">
<title>Node1&#45;&gt;Node3</title>
<path fill="none" stroke="#63b8ff" d="M85.2,-20.8C93.24,-19.51 101.69,-18.15 109.84,-16.84"/>
<polygon fill="#63b8ff" stroke="#63b8ff" points="110.27,-20.31 119.59,-15.27 109.16,-13.4 110.27,-20.31"/>
</g>
</g>
</svg>
